<?xml version="1.0" encoding="UTF-8"?>
<svg xmlns="http://www.w3.org/2000/svg" width="246" height="39" viewBox="0 0 246 39" fill="none">
  <g clip-path="url(#clip0_925_1178)">
    <path d="M10.2383 23.6259L5.46423 17.5166L4.86374 16.7445C3.89401 15.3384 3.35692 13.6339 3.44271 11.8026C3.64038 7.39775 7.47084 3.88432 12.0435 3.89924C14.1657 3.9067 16.1052 4.65638 17.5971 5.89466C17.6717 5.95806 17.7836 5.93569 17.8284 5.85363C18.3244 4.97341 18.9249 4.14914 19.6112 3.40319C19.6671 3.33978 19.6634 3.24281 19.5963 3.19059C17.4591 1.51593 14.7103 0.531278 11.7265 0.594684C5.50899 0.736414 0.384313 5.50303 0.0225273 11.4893C-0.0296892 12.3509 0.0187976 13.1938 0.153069 14.0106C0.458908 15.8717 1.22724 17.5837 2.3387 19.0383L2.48043 19.2173L12.1591 31.6001C12.2225 31.6821 12.3605 31.6411 12.3643 31.5404C12.4165 30.2238 12.7895 28.9855 13.4086 27.8927C13.4534 27.8181 13.4459 27.7249 13.39 27.654L10.242 23.6259H10.2383Z" fill="#00A8A3"></path>
    <path d="M27.2053 18.4114L26.9256 18.5718C25.0458 19.6646 23.9082 20.9849 23.5464 22.4955C23.1921 23.9725 23.7889 25.5054 25.0234 26.4677C25.057 26.4938 25.1055 26.4863 25.1316 26.4528L26.0193 25.3189C26.0454 25.2891 26.0379 25.2443 26.0081 25.2182C25.277 24.6289 24.9227 23.7188 25.1316 22.8498C25.3927 21.7682 26.2766 20.7798 27.7648 19.9145L28.0408 19.7541C29.4432 18.941 30.894 18.1018 31.916 16.6995C33.1319 15.0285 33.2848 12.4998 31.4423 11.1608C31.1104 10.9183 30.715 10.7654 30.2936 10.6647C30.1518 10.6312 29.9952 10.6162 29.8385 10.6088C29.749 10.605 29.6595 10.6013 29.57 10.6013C29.391 10.6013 29.1746 10.6386 28.977 10.6834C28.8576 10.7132 28.7494 10.7878 28.6748 10.8848L28.3466 11.3025L27.8431 11.944L27.8021 11.9962C27.7685 12.0373 27.8095 12.0969 27.8618 12.082C28.7159 11.8732 29.6931 11.8508 30.4577 12.4065C31.502 13.1674 31.3342 14.7563 30.5807 15.7931C29.7602 16.9232 28.5182 17.6431 27.2016 18.404L27.2053 18.4114Z" fill="white"></path>
    <path d="M41.8815 11.5305C41.5234 5.24583 36.1003 0.434449 29.5733 0.598558C27.41 0.650774 25.3885 1.25872 23.6542 2.27695C22.3003 2.95949 20.9165 4.4029 20.9165 4.4029C20.2899 5.04069 19.764 5.77545 19.3724 6.58108C19.2419 6.84962 19.1225 7.12562 19.0255 7.41281C18.578 8.75179 18.6414 9.74763 18.6973 10.143C18.716 10.2661 18.7645 10.378 18.8428 10.4787L20.9874 13.2238C21.0433 13.2946 21.159 13.2573 21.159 13.1715C21.1813 11.8811 21.558 10.2027 21.558 10.2027C21.8229 9.15833 22.2965 8.19233 22.9269 7.34195C24.4859 5.25702 27.0221 3.89939 29.8903 3.89939C31.2591 3.89939 32.5534 4.20896 33.7021 4.76096C36.5255 6.11486 38.4687 8.92336 38.4687 12.1682C38.4687 13.8056 37.9727 15.3348 37.1186 16.6178L36.3241 17.6323L31.6433 23.6223L30.2596 25.3939L28.4059 27.7661L27.2273 29.2729L23.8817 33.5509L23.505 34.032C23.4863 34.0544 23.449 34.0954 23.408 34.1402C22.7851 34.7668 21.9086 35.1584 20.9389 35.1584C19.9692 35.1584 19.0778 34.7631 18.4512 34.129C18.3878 34.0619 18.3244 33.9947 18.2684 33.9276C18.1006 33.7262 17.9849 33.5322 17.9812 33.5285C17.6828 33.0362 17.5113 32.4655 17.5113 31.8576C17.5113 30.8282 17.9961 29.9107 18.7607 29.3064C18.8241 29.2542 18.8391 29.1684 18.7868 29.1013L17.0115 26.8299C16.963 26.7665 16.8698 26.7516 16.8026 26.7963C15.8665 27.4155 15.1205 28.2584 14.6468 29.2654C14.2813 30.0412 14.0762 30.914 14.0762 31.8576C14.0762 33.2376 14.5126 34.5169 15.2622 35.5762C15.3853 35.7514 15.5196 35.923 15.6613 36.0871C16.7467 37.3478 18.3094 38.2094 20.0811 38.422C20.3608 38.4555 20.648 38.4742 20.9389 38.4742C21.2298 38.4742 21.517 38.4555 21.8005 38.422C23.6206 38.2019 25.2207 37.2956 26.3098 35.9752L26.5261 35.6955L29.5248 31.8613L35.4551 24.2713L39.1438 19.5494C39.3751 19.2809 39.5951 19.0011 39.8003 18.7102C40.7812 17.3302 41.46 15.7376 41.7472 14.0182C41.8815 13.2126 41.9299 12.3808 41.8815 11.5305Z" fill="white"></path>
    <path d="M244.012 12.4453V18.8568H236.124V12.4453H234.523V26.6967H236.124V20.3114H244.012V26.6967H245.616V12.4453H244.012Z" fill="white"></path>
    <path d="M222.098 26.6967H223.698V13.8999H228.923V12.4453H216.854V13.8999H222.098V26.6967Z" fill="white"></path>
    <path d="M204.787 26.6964H213.97V25.2008H206.387V12.4451H204.787V26.6964Z" fill="white"></path>
    <path d="M194.118 20.7776H188.919L191.518 14.2617L194.118 20.7776ZM198.21 26.6967L192.32 12.4453H190.72L184.809 26.6967H186.543L188.322 22.2508H194.722L196.501 26.6967H198.213H198.21Z" fill="white"></path>
    <path d="M169.672 26.6967H179.03V25.2458H171.272V20.3076H178.097V18.812H171.272V13.8999H179.03V12.4453H169.672V26.6967Z" fill="white"></path>
    <path d="M150.355 26.6964H151.956V20.3074H159.848V26.6964H161.448V12.4451H159.848V18.8565H151.956V12.4451H150.355V26.6964Z" fill="white"></path>
    <path d="M137.674 21.0799H133.918L135.787 15.6941L137.678 21.0799H137.674ZM143.344 26.7006L138.099 12.4492H134.165L128.562 26.7006H131.964L133.031 23.6235H138.566L139.655 26.7006H143.344Z" fill="white"></path>
    <path d="M121.061 17.3162C121.061 17.9428 120.886 18.4388 120.539 18.8006C120.192 19.1624 119.655 19.3452 118.928 19.3452H116.306V15.1343H118.928C120.349 15.1343 121.061 15.8616 121.061 17.3125M124.952 17.0775C124.952 15.5259 124.467 14.3622 123.497 13.5939C122.527 12.8256 121.151 12.4414 119.372 12.4414H112.703V26.6928H116.302V22.0119H119.368C121.117 22.0119 122.483 21.583 123.471 20.7289C124.456 19.8748 124.948 18.6552 124.948 17.0738" fill="white"></path>
    <path d="M101.72 12.4453L97.4754 18.0026L93.3167 12.4453H89.6504V26.7004H93.0967V17.0814L97.3411 22.6387L101.697 17.0627V26.7004H105.3V12.4453H101.72Z" fill="white"></path>
    <path d="M84.0957 12.4451H80.5151L77.4717 17.8532L74.1149 12.4451H69.6914L75.3159 20.5237V26.7002H78.9151V20.5871L84.0957 12.4451Z" fill="white"></path>
    <path d="M57.0104 26.6964H60.6133V15.1156H64.8354V12.4451H52.8555V15.1156H57.0104V26.6964Z" fill="white"></path>
  </g>
  <defs>
    <clipPath id="clip0_925_1178">
      <rect width="245.615" height="37.8793" fill="white" transform="translate(0 0.595703)"></rect>
    </clipPath>
  </defs>
</svg>
